<svg xmlns="http://www.w3.org/2000/svg" height="48" width="48" viewBox="289 1856 26 26">
  <defs>
    <style>.arrow { fill: #000000; } .vertex { fill: #555555; } .segment { fill: #888888; }</style>
  </defs>
  <!-- Arrow/lasso pointer -->
  <path class="arrow" d="M301.12,1857.831l-11.342-2.181c-0.167-0.032-0.338,0.024-0.453,0.149s-0.157,0.3-0.111,0.464
    l3.054,10.906c0.048,0.17,0.183,0.301,0.354,0.344c0.171,0.042,0.352-0.01,0.473-0.138l0.701-0.738
    c0.109-0.115,0.156-0.276,0.126-0.432l-1.333-6.821c-0.03-0.152,0.014-0.309,0.118-0.423c0.104-0.115,0.256-0.173,0.41-0.159
    l7.21,0.688c0.15,0.014,0.298-0.041,0.402-0.15l0.656-0.69c0.123-0.13,0.166-0.317,0.111-0.487S301.296,1857.865,301.12,1857.831z"/>
  <!-- Polygon vertex marker: bottom-left -->
  <polygon class="vertex" points="299.058,1862.153 299.058,1861.808 295.558,1861.808 295.558,1865.308 296.57,1865.308
    296.54,1866.462 297.54,1866.487 297.57,1865.308 299.058,1865.308 299.058,1863.232 300.086,1862.816 299.712,1861.889"/>
  <!-- Polygon vertex marker: top-right -->
  <polygon class="vertex" points="303.716,1861.35 303.716,1861.854 305.942,1861.854 306.594,1862.929 307.449,1862.411
    307.112,1861.854 307.216,1861.854 307.216,1858.354 303.716,1858.354 303.716,1860.272 302.497,1860.764 302.871,1861.691"/>
  <!-- Connecting line segment: top-right to bottom-right (was rotated rect) -->
  <polygon class="segment" points="307.730,1864.703 308.585,1864.184 310.804,1867.838 309.950,1868.357"/>
  <!-- Connecting line segment: bottom-right to bottom-left (was rotated rect) -->
  <polygon class="segment" points="301.920,1876.980 307.352,1874.508 307.766,1875.419 302.334,1877.890"/>
  <!-- Polygon vertex marker: bottom-left-2 -->
  <polygon class="vertex" points="298.437,1878.631 298.437,1877.809 297.244,1877.809 297.265,1876.99 296.265,1876.965
    296.243,1877.809 294.937,1877.809 294.937,1881.309 298.437,1881.309 298.437,1879.729 299.624,1879.188 299.21,1878.278"/>
  <!-- Connecting line segment: left side vertical (was rotated rect) -->
  <polygon class="segment" points="296.382,1874.366 296.515,1869.113 297.515,1869.139 297.382,1874.391"/>
  <!-- Polygon vertex marker: far-right -->
  <polygon class="vertex" points="312.495,1870.731 311.883,1869.722 311.027,1870.239 311.326,1870.731 311.261,1870.731
    311.261,1872.793 310.073,1873.334 310.487,1874.244 311.261,1873.892 311.261,1874.231 314.761,1874.231 314.761,1870.731"/>
</svg>
